<?xml version="1.0" standalone="no"?>
<!DOCTYPE svg PUBLIC "-//W3C//DTD SVG 20010904//EN"
 "http://www.w3.org/TR/2001/REC-SVG-20010904/DTD/svg10.dtd">
<svg version="1.0" xmlns="http://www.w3.org/2000/svg"
 width="1024.000000pt" height="1024.000000pt" viewBox="0 0 1024.000000 1024.000000"
 preserveAspectRatio="xMidYMid meet">
<metadata>
Created by potrace 1.11, written by Peter Selinger 2001-2013
</metadata>
<g transform="translate(0.000000,1024.000000) scale(0.100000,-0.100000)"
fill="#000000" stroke="none">
<path d="M2430 10229 c-245 -10 -524 -41 -675 -75 -665 -148 -1203 -569 -1495
-1169 -108 -221 -169 -422 -209 -690 -46 -304 -46 -277 -46 -3165 0 -2842 0
-2832 41 -3150 65 -506 268 -939 598 -1278 160 -164 300 -273 504 -392 281
-162 599 -250 1057 -292 206 -19 5590 -19 5815 0 401 34 674 98 925 216 468
220 828 576 1046 1031 127 265 194 531 231 915 19 198 19 5637 0 5850 -41 456
-129 771 -297 1069 -344 608 -938 998 -1665 1095 -290 39 -290 39 -2990 41
-1449 1 -2727 -1 -2840 -6z m5590 -434 c442 -54 853 -247 1168 -550 331 -316
526 -690 609 -1165 17 -100 18 -237 18 -2965 l0 -2860 -23 -123 c-65 -353
-213 -690 -412 -941 -67 -84 -259 -279 -325 -329 -33 -26 -61 -50 -63 -54 -2
-4 -10 -8 -17 -8 -7 0 -15 -4 -17 -8 -6 -17 -156 -108 -277 -169 -205 -103
-457 -176 -696 -203 -71 -8 -904 -10 -2915 -7 l-2815 3 -105 21 c-156 31 -193
41 -325 85 -215 71 -454 199 -630 336 -98 77 -299 282 -370 377 -213 285 -346
618 -390 974 -13 99 -15 527 -15 2881 0 1746 4 2799 10 2859 34 319 156 669
321 919 27 41 49 78 49 83 0 4 4 9 8 11 4 2 30 32 56 67 65 84 253 274 344
346 288 228 660 381 1032 424 41 5 1331 9 2865 10 2448 1 2806 -1 2915 -14z"/>
<path d="M4625 6501 l-70 -6 -3 -42 c-3 -42 -3 -42 40 -52 139 -34 238 -129
327 -314 47 -95 903 -2268 968 -2454 l15 -43 91 0 92 0 290 835 c160 458 293
831 296 827 3 -4 152 -379 330 -834 l324 -828 90 0 90 0 154 438 c84 240 291
824 458 1297 168 473 327 922 353 998 l49 137 -105 0 c-99 0 -105 -1 -114 -22
-5 -13 -165 -462 -356 -998 -190 -536 -351 -987 -358 -1002 -10 -26 -35 33
-320 760 -170 433 -329 826 -353 874 -89 175 -181 270 -330 340 -150 70 -368
107 -548 91 l-90 -8 -3 -42 c-3 -39 -1 -43 25 -49 153 -33 255 -113 349 -274
25 -41 87 -182 139 -313 l94 -238 -191 -546 -192 -545 -102 259 c-55 142 -192
491 -304 776 -112 285 -224 554 -249 599 -26 46 -79 116 -120 160 -63 67 -88
86 -165 123 -104 50 -219 80 -356 95 -99 10 -129 10 -245 1z"/>
<path d="M1690 6397 l0 -64 73 -6 c135 -10 202 -57 240 -167 l22 -65 3 -1232
2 -1233 285 0 285 0 0 685 0 685 574 0 575 0 4 -522 c3 -432 7 -535 20 -589
32 -136 90 -207 195 -239 58 -18 93 -20 378 -20 l314 0 0 64 0 63 -76 6 c-183
16 -244 94 -264 337 -5 64 -10 614 -10 1238 l0 1122 -280 0 -280 0 0 -630 0
-630 -574 0 -574 0 -5 463 c-5 498 -9 544 -61 645 -31 60 -68 95 -131 124 -49
22 -60 23 -382 26 l-333 3 0 -64z"/>
</g>
</svg>
