<svg width="120" height="40" viewBox="0 0 120 40" fill="none" xmlns="http://www.w3.org/2000/svg">
<path d="M110.135 0.00013H9.53468C9.16798 0.00013 8.80568 0.00013 8.43995 0.00213C8.1338 0.00413 7.83009 0.00994 7.521 0.01483C6.84951 0.0227318 6.17961 0.0818063 5.5171 0.19154C4.85552 0.303663 4.21467 0.515046 3.61622 0.81854C3.0185 1.1246 2.47235 1.5223 1.99757 1.9972C1.5203 2.47077 1.12246 3.01815 0.81935 3.61829C0.5154 4.21724 0.304641 4.85907 0.19435 5.52161C0.0830109 6.18331 0.0230984 6.85265 0.01515 7.52361C0.00587 7.83021 0.00489 8.13783 0 8.44447V31.5587C0.00489 31.8692 0.00587 32.17 0.01515 32.4806C0.0231008 33.1516 0.0830134 33.8209 0.19435 34.4825C0.304336 35.1455 0.515108 35.7877 0.81935 36.3868C1.12233 36.985 1.52022 37.5302 1.99757 38.0011C2.47054 38.4781 3.01705 38.8761 3.61622 39.1798C4.21467 39.4841 4.85545 39.6968 5.5171 39.8106C6.17972 39.9195 6.84956 39.9786 7.521 39.9874C7.83009 39.9942 8.1338 39.9981 8.43995 39.9981C8.80567 40.0001 9.168 40.0001 9.53468 40.0001H110.135C110.494 40.0001 110.859 40.0001 111.219 39.9981C111.523 39.9981 111.836 39.9942 112.141 39.9874C112.811 39.9791 113.479 39.92 114.141 39.8106C114.804 39.696 115.448 39.4834 116.049 39.1798C116.647 38.8759 117.193 38.478 117.666 38.0011C118.142 37.5284 118.541 36.9836 118.848 36.3868C119.15 35.7872 119.358 35.1451 119.467 34.4825C119.578 33.8208 119.64 33.1516 119.652 32.4806C119.656 32.17 119.656 31.8692 119.656 31.5587C119.664 31.1954 119.664 30.8341 119.664 30.4649V9.53626C119.664 9.17005 119.664 8.80677 119.656 8.44447C119.656 8.13783 119.656 7.83021 119.652 7.52357C119.64 6.85255 119.578 6.18337 119.467 5.52157C119.358 4.85941 119.149 4.21763 118.848 3.61825C118.23 2.41533 117.252 1.43616 116.049 0.81845C115.448 0.515697 114.804 0.30437 114.141 0.19145C113.48 0.0812328 112.811 0.0221378 112.141 0.01469C111.836 0.00981 111.523 0.00395 111.219 0.002C110.859 0 110.494 0 110.135 0V0.00013Z" fill="black"/>
<path d="M8.44483 39.1251C8.14015 39.1251 7.84283 39.1212 7.54054 39.1144C6.91432 39.1063 6.28957 39.0518 5.6714 38.9513C5.09499 38.8521 4.5366 38.6674 4.01466 38.4034C3.4975 38.1417 3.02581 37.7984 2.61766 37.3868C2.2036 36.9801 1.85888 36.5084 1.59715 35.9903C1.33254 35.4689 1.14941 34.91 1.05415 34.3331C0.951273 33.7132 0.895613 33.0864 0.887649 32.4581C0.881309 32.2472 0.873009 31.545 0.873009 31.545V8.44447C0.873009 8.44447 0.881849 7.75306 0.887699 7.54993C0.895325 6.92261 0.950661 6.29678 1.05323 5.67786C1.14867 5.09938 1.33194 4.53888 1.59669 4.01576C1.85745 3.49807 2.20026 3.02599 2.61183 2.61781C3.02293 2.20575 3.49613 1.86073 4.01417 1.59534C4.53491 1.33222 5.09224 1.14886 5.66749 1.0514C6.28769 0.949966 6.91461 0.895126 7.543 0.88734L8.44532 0.87513H111.214L112.127 0.88783C112.75 0.895229 113.371 0.94958 113.985 1.05042C114.566 1.1491 115.13 1.33375 115.656 1.59827C116.694 2.13312 117.539 2.97929 118.071 4.0182C118.332 4.53771 118.512 5.09364 118.606 5.66712C118.71 6.29112 118.768 6.92187 118.78 7.55433C118.783 7.83753 118.783 8.14173 118.783 8.44447C118.791 8.81947 118.791 9.1764 118.791 9.53626V30.4649C118.791 30.8282 118.791 31.1827 118.783 31.5401C118.783 31.8653 118.783 32.1632 118.779 32.4698C118.768 33.091 118.71 33.7105 118.608 34.3233C118.515 34.9044 118.333 35.4676 118.068 35.9933C117.805 36.5057 117.462 36.9734 117.053 37.379C116.644 37.7928 116.172 38.1381 115.653 38.4015C115.128 38.6675 114.566 38.8529 113.985 38.9513C113.367 39.0523 112.742 39.1068 112.116 39.1144C111.823 39.1212 111.517 39.1251 111.219 39.1251L110.135 39.1271L8.44483 39.1251Z" fill="white"/>
<path fill-rule="evenodd" clip-rule="evenodd" d="M74.6782 29.0763C73.0435 29.0763 71.8472 28.2677 71.7095 27.0363L69.8071 27.0362C69.9272 29.2823 71.7866 30.7032 74.5405 30.7032C77.4839 30.7032 79.3335 29.2481 79.3335 26.9249C79.3335 25.1085 78.2759 24.085 75.728 23.4825L74.3599 23.1465C72.7593 22.7511 72.105 22.2345 72.105 21.3565C72.105 20.255 73.1294 19.4981 74.6265 19.4981C76.1235 19.4981 77.148 20.2462 77.2603 21.4854H79.1363C79.0757 19.3428 77.2769 17.8712 74.6519 17.8712C72.0015 17.8712 70.1343 19.3428 70.1343 21.4854C70.1343 23.2159 71.1929 24.2823 73.4732 24.8331L75.0825 25.2208C76.6919 25.6163 77.3716 26.1934 77.3716 27.1573C77.3716 28.2677 76.2447 29.0763 74.6782 29.0763ZM42.3018 27.1398H37.5684L36.4317 30.4962H34.4268L38.9102 18.0782H40.9932L45.4766 30.4962H43.4375L42.3018 27.1398ZM38.0586 25.591H41.8106L39.961 20.1437H39.9092L38.0586 25.591ZM51.3809 30.591C53.6533 30.591 55.1592 28.7833 55.1592 25.9699C55.1592 23.1642 53.6446 21.3478 51.3467 21.3478C50.1643 21.3096 49.0567 21.9246 48.4639 22.9484H48.4297V21.4425H46.6309V33.4913H48.4893V29.007H48.5323C49.0998 30.0372 50.2063 30.6524 51.3809 30.591ZM53.249 25.9699C53.249 24.1369 52.3018 22.9318 50.8565 22.9318C49.4365 22.9318 48.4815 24.1622 48.4815 25.9699C48.4815 27.7941 49.4365 29.0158 50.8565 29.0158C52.3018 29.0158 53.249 27.8195 53.249 25.9699H53.249ZM61.3457 30.591C63.6182 30.591 65.1245 28.7833 65.1245 25.9699C65.1245 23.1642 63.6094 21.3478 61.3115 21.3478C60.1291 21.3096 59.0215 21.9246 58.4287 22.9484H58.3945V21.4425H56.5957V33.4913H58.4541V29.007H58.4971C59.0647 30.0372 60.1711 30.6524 61.3457 30.591ZM63.2139 25.9699C63.2139 24.1369 62.2666 22.9318 60.8213 22.9318C59.4014 22.9318 58.4463 24.1622 58.4463 25.9699C58.4463 27.7941 59.4014 29.0158 60.8213 29.0158C62.2666 29.0158 63.2139 27.8195 63.2139 25.9699ZM83.3462 19.2999V21.4425H85.0679V22.9142H83.3462V27.9054C83.3462 28.6808 83.6909 29.0421 84.4478 29.0421C84.6522 29.0386 84.8562 29.0242 85.0591 28.9991V30.462C84.7188 30.5256 84.373 30.5544 84.0269 30.548C82.1939 30.548 81.479 29.8595 81.479 28.1036V22.9142H80.1626V21.4425H81.479V19.2999H83.3462ZM90.3579 21.3312C87.7417 21.3312 86.064 23.1212 86.064 25.9699C86.064 28.8263 87.7251 30.6085 90.3579 30.6085C92.9917 30.6085 94.6529 28.8263 94.6529 25.9699C94.6529 23.1212 92.9829 21.3312 90.3579 21.3312ZM92.7593 25.9699C92.7593 24.0158 91.8638 22.8624 90.3579 22.8624C88.8521 22.8624 87.9566 24.0245 87.9566 25.9699C87.9566 27.9318 88.8521 29.0763 90.3579 29.0763C91.8638 29.0763 92.7593 27.9318 92.7593 25.9699ZM97.9575 21.4425H96.1851L96.1851 30.4962H98.0435V25.1261C97.9816 24.5828 98.1603 24.0396 98.5326 23.6391C98.9049 23.2387 99.4336 23.0209 99.98 23.0431C100.263 23.0348 100.545 23.0728 100.815 23.1554V21.4171C100.606 21.3703 100.392 21.347 100.178 21.3478C99.1567 21.3088 98.2477 21.9915 98.0005 22.9835H97.9575V21.4425ZM109.383 27.837C109.133 29.4806 107.533 30.6085 105.485 30.6085C102.851 30.6085 101.216 28.8439 101.216 26.0128C101.216 23.173 102.86 21.3312 105.407 21.3312C107.912 21.3312 109.487 23.0519 109.487 25.797V26.4337H103.092V26.546C103.033 27.2201 103.265 27.8872 103.731 28.3779C104.197 28.8686 104.852 29.1354 105.528 29.1105C106.43 29.195 107.28 28.6771 107.619 27.837L109.383 27.837ZM107.627 25.1349H103.101C103.1 24.5236 103.342 23.9371 103.775 23.5056C104.208 23.0741 104.796 22.8334 105.407 22.837C106.013 22.824 106.598 23.0646 107.019 23.5008C107.441 23.937 107.661 24.5292 107.627 25.1349Z" fill="black"/>
<path fill-rule="evenodd" clip-rule="evenodd" d="M59.0938 8.43713H59.9824V14.6979H59.0938V8.43713ZM39.9318 9.54901C39.3879 8.97468 38.6151 8.67452 37.8262 8.73113H35.6709V14.698H37.8262C39.6035 14.698 40.6338 13.6022 40.6338 11.696C40.7333 10.9113 40.4756 10.1233 39.9318 9.54901ZM37.7227 13.8541H36.5977V9.57434H37.7227C38.2835 9.54322 38.8289 9.76436 39.2097 10.1773C39.5905 10.5902 39.7668 11.1517 39.6904 11.7081C39.7728 12.2669 39.599 12.8331 39.2172 13.2494C38.8355 13.6657 38.2865 13.8878 37.7227 13.8541ZM41.6807 12.4445C41.6035 11.6374 41.9905 10.8562 42.6794 10.4287C43.3683 10.0012 44.2401 10.0012 44.929 10.4287C45.6179 10.8562 46.005 11.6374 45.9278 12.4445C46.0064 13.2525 45.6198 14.0351 44.9302 14.4635C44.2407 14.892 43.3677 14.892 42.6782 14.4635C41.9887 14.0351 41.602 13.2525 41.6807 12.4445ZM43.8057 10.8976C44.5752 10.8976 45.0137 11.4684 45.0137 12.4445H45.0137C45.0137 13.4245 44.5752 13.9948 43.8057 13.9948C43.0333 13.9948 42.5987 13.4284 42.5987 12.4445C42.5987 11.4684 43.0332 10.8976 43.8057 10.8976ZM51.5733 14.6979H50.6514L49.7207 11.3815H49.6504L48.7237 14.6979H47.8106L46.5694 10.195H47.4707L48.2774 13.631H48.3438L49.2696 10.195H50.1221L51.0479 13.631H51.1182L51.9209 10.195H52.8096L51.5733 14.6979ZM54.709 10.195H53.8535L53.8535 14.6979H54.7422V12.0636C54.7103 11.7639 54.8109 11.4653 55.0176 11.246C55.2242 11.0266 55.5164 10.9085 55.8174 10.9225C56.4746 10.9225 56.7891 11.2824 56.7891 12.006V14.6978H57.6778V11.7828C57.7429 11.3426 57.6043 10.8965 57.3011 10.5707C56.9979 10.2449 56.563 10.0747 56.1192 10.108C55.546 10.0614 55.0063 10.3836 54.7754 10.9103H54.709V10.195ZM62.2167 10.4287C61.5277 10.8562 61.1406 11.6373 61.2178 12.4445C61.1392 13.2525 61.5259 14.0351 62.2155 14.4635C62.9051 14.8919 63.778 14.8919 64.4676 14.4635C65.1572 14.0351 65.5439 13.2525 65.4654 12.4445C65.5425 11.6373 65.1554 10.8562 64.4664 10.4287C63.7775 10.0011 62.9057 10.0011 62.2167 10.4287ZM64.5508 12.4445C64.5508 11.4684 64.1123 10.8976 63.3428 10.8976C62.5703 10.8976 62.1358 11.4684 62.1358 12.4445C62.1358 13.4284 62.5704 13.9948 63.3428 13.9948C64.1123 13.9948 64.5508 13.4245 64.5508 12.4445ZM68.0757 12.0802C67.0044 12.1466 66.4009 12.6139 66.4009 13.4245C66.4024 13.8088 66.5664 14.1745 66.8524 14.4313C67.1384 14.688 67.5196 14.8118 67.9019 14.7721C68.4472 14.7973 68.9639 14.5272 69.2544 14.0651H69.3247V14.6979H70.1802V11.6212C70.1802 10.6701 69.5435 10.1081 68.4146 10.1081C67.3931 10.1081 66.6656 10.6041 66.5747 11.3776H67.4351C67.5337 11.0592 67.8775 10.8771 68.3736 10.8771C68.981 10.8771 69.2954 11.1456 69.2954 11.6212V12.0099L68.0757 12.0802ZM69.2954 13.0397V12.6632L68.1958 12.7335C67.5757 12.775 67.2945 12.986 67.2945 13.3829C67.2945 13.7882 67.646 14.0241 68.1295 14.0241C68.4156 14.053 68.7013 13.9646 68.9211 13.779C69.1409 13.5935 69.276 13.3267 69.2954 13.0397ZM73.2173 10.1203C72.0796 10.1203 71.3482 11.0216 71.3482 12.4445C71.3482 13.8707 72.0718 14.7721 73.2173 14.7721C73.7981 14.7935 74.3428 14.4909 74.6314 13.9864H74.7017V14.6979H75.5532V8.43713H74.6646V10.9103H74.5982C74.3298 10.4016 73.7918 10.0938 73.2173 10.1203ZM72.2662 12.4445C72.2662 13.3996 72.7164 13.9743 73.4693 13.9743C74.2183 13.9743 74.6812 13.3913 74.6812 12.4484C74.6812 11.5099 74.2134 10.9186 73.4693 10.9186C72.7212 10.9186 72.2661 11.4972 72.2661 12.4445H72.2662ZM80.2287 10.4287C79.5398 10.8562 79.1528 11.6374 79.23 12.4445C79.1513 13.2525 79.538 14.0351 80.2275 14.4635C80.9171 14.892 81.79 14.892 82.4795 14.4635C83.1691 14.0351 83.5558 13.2525 83.4771 12.4445C83.5543 11.6374 83.1673 10.8562 82.4783 10.4287C81.7894 10.0012 80.9177 10.0012 80.2287 10.4287ZM82.563 12.4445C82.563 11.4684 82.1245 10.8976 81.355 10.8976C80.5825 10.8976 80.148 11.4684 80.148 12.4445C80.148 13.4284 80.5826 13.9948 81.355 13.9948C82.1245 13.9948 82.563 13.4245 82.563 12.4445ZM85.5249 10.195H84.6695V14.6979H85.5581V12.0636C85.5262 11.7639 85.6268 11.4653 85.8335 11.246C86.0401 11.0266 86.3323 10.9085 86.6333 10.9225C87.2906 10.9225 87.605 11.2824 87.605 12.006V14.6978H88.4937V11.7828C88.5588 11.3426 88.4202 10.8965 88.117 10.5707C87.8138 10.2449 87.3789 10.0747 86.9351 10.108C86.3619 10.0614 85.8223 10.3836 85.5913 10.9103H85.5249V10.195ZM93.5152 9.07386V10.2155H94.4908V10.964H93.5152V13.2794C93.5152 13.7511 93.7095 13.9577 94.1519 13.9577C94.2651 13.9573 94.3783 13.9504 94.4908 13.9371V14.6774C94.3312 14.7059 94.1695 14.7211 94.0074 14.7228C93.0191 14.7228 92.6255 14.3751 92.6255 13.507V10.964H91.9107V10.2154H92.6255V9.07386H93.5152ZM96.5855 8.43713H95.7046L95.7047 14.6979H96.5933V12.068C96.5658 11.759 96.6761 11.4536 96.8947 11.2335C97.1133 11.0134 97.4179 10.901 97.7271 10.9264C98.355 10.9264 98.69 11.2906 98.69 12.0099V14.6979H99.5796V11.7907C99.6384 11.3526 99.4989 10.9112 99.199 10.5866C98.8991 10.2619 98.4701 10.0879 98.0288 10.1119C97.4469 10.0647 96.8978 10.3873 96.6558 10.9186H96.5855V8.43713ZM104.761 13.4821C104.512 14.3314 103.69 14.8802 102.81 14.7848C102.21 14.8006 101.633 14.5518 101.232 14.1042C100.831 13.6566 100.648 13.0556 100.73 12.4606C100.65 11.8639 100.833 11.2619 101.231 10.8106C101.63 10.3592 102.204 10.1029 102.806 10.108C104.059 10.108 104.815 10.964 104.815 12.378V12.6881H101.635V12.7379C101.607 13.0721 101.721 13.4026 101.95 13.6482C102.178 13.8938 102.499 14.0317 102.834 14.0279C103.269 14.0801 103.692 13.8645 103.906 13.482L104.761 13.4821ZM103.91 12.0309H101.635C101.631 11.7204 101.753 11.4214 101.972 11.2018C102.192 10.9822 102.491 10.8605 102.801 10.8644C103.108 10.8574 103.403 10.98 103.614 11.2022C103.825 11.4243 103.932 11.7253 103.91 12.0309Z" fill="black"/>
<path fill-rule="evenodd" clip-rule="evenodd" d="M23.3151 7.84705C23.4158 9.16172 23 10.4639 22.1561 11.4769C21.3374 12.4953 20.0968 13.0818 18.7902 13.0684C18.7071 11.7915 19.135 10.5341 19.9796 9.57287C20.8349 8.59866 22.0258 7.98246 23.3151 7.84705ZM27.4473 15.5718C25.9443 16.4958 25.0194 18.1253 24.9967 19.8895C24.9989 21.8854 26.1941 23.6867 28.0324 24.4642C27.6789 25.6127 27.146 26.698 26.4534 27.6801C25.5233 29.0714 24.5482 30.4306 23.0004 30.4557C22.2643 30.4727 21.7674 30.261 21.2497 30.0404C20.7096 29.8104 20.1468 29.5706 19.2662 29.5706C18.3322 29.5706 17.7442 29.8181 17.1771 30.0568C16.6871 30.263 16.2126 30.4627 15.544 30.4904C14.0699 30.545 12.9435 29.0055 11.9796 27.6273C10.0531 24.8127 8.55295 19.6953 10.5641 16.2133C11.5085 14.5162 13.2743 13.4393 15.2154 13.3766C16.0514 13.3594 16.8536 13.6816 17.5569 13.9641C18.0948 14.1801 18.5748 14.3729 18.9679 14.3729C19.3135 14.3729 19.7801 14.1877 20.3239 13.9719C21.1806 13.6319 22.2288 13.2159 23.2969 13.328C24.9567 13.3799 26.4948 14.2115 27.4473 15.5718Z" fill="black"/>
</svg>
