<svg width="134" height="17" viewBox="0 0 134 17" fill="none" xmlns="http://www.w3.org/2000/svg">
<path d="M4.914 13.306C4.242 13.306 3.594 13.216 2.97 13.036C2.346 12.868 1.836 12.622 1.44 12.298C1.044 11.962 0.846 11.578 0.846 11.146V9.04H1.35C1.53 10.264 1.908 11.146 2.484 11.686C3.06 12.226 3.864 12.496 4.896 12.496C5.592 12.496 6.144 12.346 6.552 12.046C6.96 11.746 7.164 11.314 7.164 10.75C7.164 10.27 7.014 9.862 6.714 9.526C6.414 9.19 5.946 8.824 5.31 8.428L3.096 7.096C2.292 6.628 1.716 6.142 1.368 5.638C1.032 5.134 0.864 4.546 0.864 3.874C0.864 2.926 1.224 2.176 1.944 1.624C2.676 1.072 3.66 0.795999 4.896 0.795999C5.568 0.795999 6.216 0.885999 6.84 1.066C7.464 1.234 7.974 1.486 8.37 1.822C8.766 2.146 8.964 2.524 8.964 2.956V5.062H8.46C8.256 3.838 7.878 2.956 7.326 2.416C6.774 1.876 6.03 1.606 5.094 1.606C4.446 1.606 3.93 1.762 3.546 2.074C3.174 2.386 2.988 2.812 2.988 3.352C2.988 3.82 3.132 4.21 3.42 4.522C3.72 4.822 4.2 5.164 4.86 5.548L7.074 6.862C7.914 7.354 8.514 7.834 8.874 8.302C9.246 8.758 9.432 9.31 9.432 9.958C9.432 11.002 9.036 11.824 8.244 12.424C7.464 13.012 6.354 13.306 4.914 13.306ZM14.6798 13.18C13.5398 13.18 12.6998 12.916 12.1598 12.388C11.6198 11.86 11.3498 11.02 11.3498 9.868V6.88C11.3498 6.268 11.2658 5.818 11.0978 5.53C10.9298 5.23 10.5938 5.08 10.0898 5.08H9.90984V4.54H12.0698C12.5018 4.54 12.8318 4.612 13.0598 4.756C13.2878 4.9 13.4498 5.14 13.5458 5.476C13.6418 5.8 13.6898 6.268 13.6898 6.88V9.886C13.6898 10.786 13.8158 11.428 14.0678 11.812C14.3198 12.184 14.7038 12.37 15.2198 12.37C15.6638 12.37 16.0658 12.178 16.4258 11.794C16.5578 11.662 16.6958 11.464 16.8398 11.2V4.54H19.1798V13H17.6498L17.0198 12.19H16.9298C16.7618 12.37 16.5638 12.538 16.3358 12.694C15.8798 13.018 15.3278 13.18 14.6798 13.18ZM21.7076 6.88C21.7076 6.268 21.6236 5.818 21.4556 5.53C21.2996 5.23 20.9696 5.08 20.4656 5.08H20.2856V4.54H22.0676C22.4876 4.54 22.8116 4.6 23.0396 4.72C23.2676 4.828 23.4476 5.02 23.5796 5.296C24.2876 4.672 25.1036 4.36 26.0276 4.36C27.2396 4.36 28.1696 4.774 28.8176 5.602C29.4776 6.418 29.8076 7.474 29.8076 8.77C29.8076 10.066 29.4716 11.128 28.7996 11.956C28.1396 12.772 27.1856 13.18 25.9376 13.18C25.4456 13.18 24.9836 13.09 24.5516 12.91C24.3596 12.838 24.1916 12.748 24.0476 12.64V16.42H21.7076V6.88ZM25.5776 12.37C26.7776 12.37 27.3776 11.17 27.3776 8.77C27.3776 7.666 27.2396 6.79 26.9636 6.142C26.6876 5.494 26.2556 5.17 25.6676 5.17C24.9956 5.17 24.4136 5.416 23.9216 5.908L23.9756 6.16C24.0236 6.304 24.0476 6.508 24.0476 6.772V11.83C24.1796 11.938 24.3236 12.028 24.4796 12.1C24.8156 12.28 25.1816 12.37 25.5776 12.37ZM35.2865 13.18C34.4585 13.18 33.7325 12.988 33.1085 12.604C32.4845 12.22 31.9985 11.698 31.6505 11.038C31.3145 10.366 31.1465 9.61 31.1465 8.77C31.1465 7.834 31.3145 7.036 31.6505 6.376C31.9985 5.716 32.4725 5.218 33.0725 4.882C33.6725 4.534 34.3505 4.36 35.1065 4.36C35.8505 4.36 36.5225 4.51 37.1225 4.81C37.7225 5.11 38.1965 5.536 38.5445 6.088C38.8925 6.628 39.0665 7.252 39.0665 7.96C39.0665 8.188 39.0545 8.446 39.0305 8.734L38.9945 9.094H33.5765C33.5765 10.234 33.7505 11.068 34.0985 11.596C34.4465 12.112 34.9325 12.37 35.5565 12.37C36.1325 12.37 36.6125 12.244 36.9965 11.992C37.3925 11.728 37.7705 11.356 38.1305 10.876L38.6885 11.29C38.3405 11.83 37.9025 12.28 37.3745 12.64C36.8585 13 36.1625 13.18 35.2865 13.18ZM36.6365 8.284C36.6365 7.156 36.5045 6.358 36.2405 5.89C35.9765 5.41 35.5985 5.17 35.1065 5.17C34.6505 5.17 34.2785 5.416 33.9905 5.908C33.7145 6.388 33.5765 7.18 33.5765 8.284H36.6365ZM46.4967 4.72C46.7127 4.876 46.8687 5.05 46.9647 5.242C47.0607 5.422 47.1087 5.518 47.1087 5.53L46.1907 6.232C46.1067 6.124 45.9987 6.01 45.8667 5.89C45.6027 5.65 45.2967 5.53 44.9487 5.53C44.2527 5.53 43.7187 5.716 43.3467 6.088L43.3827 6.358C43.4067 6.574 43.4187 6.772 43.4187 6.952V13H41.0787V6.88C41.0787 6.268 40.9947 5.818 40.8267 5.53C40.6707 5.23 40.3407 5.08 39.8367 5.08H39.6567V4.54H41.4387C41.8467 4.54 42.1647 4.594 42.3927 4.702C42.6327 4.798 42.8187 4.966 42.9507 5.206C43.5987 4.642 44.3547 4.36 45.2187 4.36C45.7347 4.36 46.1607 4.48 46.4967 4.72ZM48.6612 3.46C48.6612 2.848 48.5772 2.398 48.4092 2.11C48.2412 1.81 47.9052 1.66 47.4012 1.66H47.2212V1.12H49.3812C49.8132 1.12 50.1432 1.192 50.3712 1.336C50.5992 1.48 50.7612 1.72 50.8572 2.056C50.9532 2.38 51.0012 2.848 51.0012 3.46V6.43H55.8612V1.12H58.2012V10.66C58.2012 11.272 58.2852 11.728 58.4532 12.028C58.6212 12.316 58.9572 12.46 59.4612 12.46H59.6412V13H57.4812C57.0492 13 56.7192 12.934 56.4912 12.802C56.2632 12.658 56.1012 12.424 56.0052 12.1C55.9092 11.764 55.8612 11.284 55.8612 10.66V7.24H51.0012V13H48.6612V3.46ZM64.716 13.18C63.84 13.18 63.072 12.988 62.412 12.604C61.764 12.208 61.266 11.68 60.918 11.02C60.57 10.348 60.396 9.598 60.396 8.77C60.396 7.942 60.57 7.198 60.918 6.538C61.266 5.866 61.764 5.338 62.412 4.954C63.072 4.558 63.84 4.36 64.716 4.36C65.592 4.36 66.354 4.558 67.002 4.954C67.662 5.338 68.166 5.866 68.514 6.538C68.862 7.198 69.036 7.942 69.036 8.77C69.036 9.598 68.862 10.348 68.514 11.02C68.166 11.68 67.662 12.208 67.002 12.604C66.354 12.988 65.592 13.18 64.716 13.18ZM64.716 12.37C65.328 12.37 65.796 12.04 66.12 11.38C66.444 10.72 66.606 9.85 66.606 8.77C66.606 7.69 66.444 6.82 66.12 6.16C65.796 5.5 65.328 5.17 64.716 5.17C64.104 5.17 63.636 5.5 63.312 6.16C62.988 6.82 62.826 7.69 62.826 8.77C62.826 9.85 62.988 10.72 63.312 11.38C63.636 12.04 64.104 12.37 64.716 12.37ZM71.1197 6.88C71.1197 6.268 71.0357 5.818 70.8677 5.53C70.7117 5.23 70.3817 5.08 69.8777 5.08H69.6977V4.54H71.4797C72.2597 4.54 72.7697 4.768 73.0097 5.224H73.0817C73.7417 4.648 74.4977 4.36 75.3497 4.36C75.9377 4.36 76.4477 4.474 76.8797 4.702C77.3237 4.918 77.6417 5.146 77.8337 5.386C78.1217 5.074 78.4637 4.828 78.8597 4.648C79.2557 4.456 79.7657 4.36 80.3897 4.36C82.4897 4.36 83.5397 5.464 83.5397 7.672V13H81.1997V7.654C81.1997 6.826 81.0677 6.22 80.8037 5.836C80.5397 5.452 80.1917 5.26 79.7597 5.26C79.4357 5.26 79.1357 5.326 78.8597 5.458C78.5837 5.578 78.3677 5.74 78.2117 5.944C78.2357 5.992 78.2837 6.124 78.3557 6.34C78.4517 6.7 78.4997 7.144 78.4997 7.672V13H76.1597V7.654C76.1597 6.826 76.0277 6.22 75.7637 5.836C75.4997 5.452 75.1517 5.26 74.7197 5.26C74.4677 5.26 74.2037 5.338 73.9277 5.494C73.6637 5.638 73.4657 5.8 73.3337 5.98L73.3877 6.232C73.4357 6.376 73.4597 6.61 73.4597 6.934V13H71.1197V6.88ZM89.3568 13.18C88.5288 13.18 87.8028 12.988 87.1788 12.604C86.5548 12.22 86.0688 11.698 85.7208 11.038C85.3848 10.366 85.2168 9.61 85.2168 8.77C85.2168 7.834 85.3848 7.036 85.7208 6.376C86.0688 5.716 86.5428 5.218 87.1428 4.882C87.7428 4.534 88.4208 4.36 89.1768 4.36C89.9208 4.36 90.5928 4.51 91.1928 4.81C91.7928 5.11 92.2668 5.536 92.6148 6.088C92.9628 6.628 93.1368 7.252 93.1368 7.96C93.1368 8.188 93.1248 8.446 93.1008 8.734L93.0648 9.094H87.6468C87.6468 10.234 87.8208 11.068 88.1688 11.596C88.5168 12.112 89.0028 12.37 89.6268 12.37C90.2028 12.37 90.6828 12.244 91.0668 11.992C91.4628 11.728 91.8408 11.356 92.2008 10.876L92.7588 11.29C92.4108 11.83 91.9728 12.28 91.4448 12.64C90.9288 13 90.2328 13.18 89.3568 13.18ZM90.7068 8.284C90.7068 7.156 90.5748 6.358 90.3108 5.89C90.0468 5.41 89.6688 5.17 89.1768 5.17C88.7208 5.17 88.3488 5.416 88.0608 5.908C87.7848 6.388 87.6468 7.18 87.6468 8.284H90.7068ZM95.0431 6.61C94.7551 5.938 94.4851 5.464 94.2331 5.188C93.9811 4.912 93.6931 4.762 93.3691 4.738V4.396L94.2331 4.36C95.0251 4.36 95.6671 4.522 96.1591 4.846C96.6631 5.17 97.1131 5.758 97.5091 6.61L99.0391 10.048L100.245 7.168L99.9931 6.61C99.7051 5.962 99.4351 5.494 99.1831 5.206C98.9311 4.918 98.6731 4.762 98.4091 4.738V4.396L99.0931 4.36C99.9091 4.36 100.593 4.528 101.145 4.864C101.697 5.188 102.165 5.77 102.549 6.61L104.205 10.228L106.401 4.54H107.355L104.043 13.18H103.215L100.875 8.122L98.7871 13.18H97.9771L95.0431 6.61ZM112.423 13.18C111.547 13.18 110.779 12.988 110.119 12.604C109.471 12.208 108.973 11.68 108.625 11.02C108.277 10.348 108.103 9.598 108.103 8.77C108.103 7.942 108.277 7.198 108.625 6.538C108.973 5.866 109.471 5.338 110.119 4.954C110.779 4.558 111.547 4.36 112.423 4.36C113.299 4.36 114.061 4.558 114.709 4.954C115.369 5.338 115.873 5.866 116.221 6.538C116.569 7.198 116.743 7.942 116.743 8.77C116.743 9.598 116.569 10.348 116.221 11.02C115.873 11.68 115.369 12.208 114.709 12.604C114.061 12.988 113.299 13.18 112.423 13.18ZM112.423 12.37C113.035 12.37 113.503 12.04 113.827 11.38C114.151 10.72 114.313 9.85 114.313 8.77C114.313 7.69 114.151 6.82 113.827 6.16C113.503 5.5 113.035 5.17 112.423 5.17C111.811 5.17 111.343 5.5 111.019 6.16C110.695 6.82 110.533 7.69 110.533 8.77C110.533 9.85 110.695 10.72 111.019 11.38C111.343 12.04 111.811 12.37 112.423 12.37ZM124.245 4.72C124.461 4.876 124.617 5.05 124.713 5.242C124.809 5.422 124.857 5.518 124.857 5.53L123.939 6.232C123.855 6.124 123.747 6.01 123.615 5.89C123.351 5.65 123.045 5.53 122.697 5.53C122.001 5.53 121.467 5.716 121.095 6.088L121.131 6.358C121.155 6.574 121.167 6.772 121.167 6.952V13H118.827V6.88C118.827 6.268 118.743 5.818 118.575 5.53C118.419 5.23 118.089 5.08 117.585 5.08H117.405V4.54H119.187C119.595 4.54 119.913 4.594 120.141 4.702C120.381 4.798 120.567 4.966 120.699 5.206C121.347 4.642 122.103 4.36 122.967 4.36C123.483 4.36 123.909 4.48 124.245 4.72ZM132.74 13.18C132.212 13.18 131.726 13.072 131.282 12.856C130.85 12.628 130.442 12.256 130.058 11.74L128.33 9.472V13H125.99V3.46C125.99 2.848 125.906 2.398 125.738 2.11C125.57 1.81 125.234 1.66 124.73 1.66H124.55V1.12H126.71C127.142 1.12 127.472 1.192 127.7 1.336C127.928 1.48 128.09 1.72 128.186 2.056C128.282 2.38 128.33 2.848 128.33 3.46V8.59L130.508 5.926C130.916 5.434 131.3 5.08 131.66 4.864C132.02 4.648 132.5 4.54 133.1 4.54H133.46V5.008C133.1 5.008 132.776 5.08 132.488 5.224C132.2 5.368 131.924 5.596 131.66 5.908L129.914 8.032L132.308 11.2C132.884 11.98 133.442 12.436 133.982 12.568V13C133.886 13.048 133.706 13.09 133.442 13.126C133.19 13.162 132.956 13.18 132.74 13.18Z" fill="white"/>
</svg>
